<?xml version="1.0" encoding="utf-8"?>
<!-- Svg Vector Icons : http://www.onlinewebfonts.com/icon -->
<!DOCTYPE svg PUBLIC "-//W3C//DTD SVG 1.1//EN" "http://www.w3.org/Graphics/SVG/1.1/DTD/svg11.dtd">
<svg version="1.1" xmlns="http://www.w3.org/2000/svg" xmlns:xlink="http://www.w3.org/1999/xlink" x="0px" y="0px" viewBox="0 0 256 256" enable-background="new 0 0 256 256" xml:space="preserve">
<metadata> Svg Vector Icons : http://www.onlinewebfonts.com/icon </metadata>
<g><g><g><path fill="#fff" d="M132.3,22.2c-14.3,0.6-24,2.5-35.3,6.8C64.1,41.9,41.6,66.2,33.8,97.3c-2.4,9.8-3.7,23.5-2.9,30.9c0.5,4.3,1.3,5.6,3.4,5.6c1.7,0,2.4-0.4,7.5-4.2c28.7-21.2,63-39.7,91.4-49.3c7.1-2.4,9.9-3.1,9.9-2.4c0,0.6-1.6,1.7-7.6,5.1c-24.6,14-57.3,42-85,72.5c-16.6,18.3-30.7,39-38.6,56.7c-1.8,4-2,4.8-2,8.1c0,3.1,0.2,4.1,1.2,6c1.6,3,4.8,5.9,7.6,6.8c7.4,2.5,15.3-1.1,17.9-8.4c4.6-12.6,9.6-23.2,15.9-33.7c2.3-3.8,4.4-7,4.6-7s1.4,0.9,2.6,1.9c11.1,9.5,24.2,16,37.8,18.8c15,3.1,29.5,2.1,45-3c26.6-8.8,47.9-28,58.3-52.5c2.8-6.4,4.5-12.4,6.5-22.4c5.3-26,13.5-47.4,23.6-61.7c3.1-4.4,6.4-7.9,11.6-12.6c5.2-4.7,4.6-6-4.5-10.3c-23-10.9-59-19.1-87-20c-4.3-0.1-8.6-0.3-9.5-0.3C140.9,21.9,136.6,22,132.3,22.2z"/></g></g></g>
</svg>